<svg width="191" height="93" viewBox="0 0 191 93" fill="none" xmlns="http://www.w3.org/2000/svg">
<g filter="url(#filter0_d_1_11523)">
<path d="M40.9072 28.008C42.4752 28.008 43.8192 28.296 44.9392 28.872C46.0592 29.432 46.9152 30.224 47.5072 31.248C48.0992 32.256 48.3952 33.424 48.3952 34.752C48.3952 35.28 48.3472 35.848 48.2512 36.456C47.9632 38.072 47.3392 39.528 46.3792 40.824C45.4352 42.12 44.2272 43.144 42.7552 43.896C41.2992 44.632 39.6832 45 37.9072 45H30.8272L33.8272 28.008H40.9072ZM38.2672 40.248C39.4672 40.248 40.4752 39.92 41.2912 39.264C42.1232 38.608 42.6432 37.672 42.8512 36.456C42.8992 36.136 42.9232 35.84 42.9232 35.568C42.9232 34.624 42.6272 33.904 42.0352 33.408C41.4592 32.912 40.6512 32.664 39.6112 32.664H38.3392L36.9952 40.248H38.2672ZM53.9431 30.384C53.1111 30.384 52.4551 30.184 51.9751 29.784C51.5111 29.384 51.2791 28.864 51.2791 28.224C51.2791 27.664 51.4311 27.144 51.7351 26.664C52.0391 26.184 52.4631 25.808 53.0071 25.536C53.5671 25.248 54.1831 25.104 54.8551 25.104C55.6711 25.104 56.3111 25.312 56.7751 25.728C57.2551 26.128 57.4951 26.656 57.4951 27.312C57.4951 27.872 57.3431 28.384 57.0391 28.848C56.7351 29.312 56.3111 29.688 55.7671 29.976C55.2231 30.248 54.6151 30.384 53.9431 30.384ZM56.3911 31.464L53.9911 45H48.6631L51.0631 31.464H56.3911ZM68.2775 31.368C69.5895 31.368 70.5975 31.752 71.3015 32.52C72.0055 33.272 72.3575 34.312 72.3575 35.64C72.3575 36.12 72.3095 36.624 72.2135 37.152L70.8215 45H65.5175L66.7895 37.824C66.8215 37.568 66.8375 37.392 66.8375 37.296C66.8375 36.8 66.6935 36.416 66.4055 36.144C66.1335 35.872 65.7495 35.736 65.2535 35.736C64.6775 35.736 64.1895 35.92 63.7895 36.288C63.3895 36.656 63.1255 37.16 62.9975 37.8L61.7255 45H56.3975L58.7975 31.464H64.1255L63.7655 33.504C64.2935 32.864 64.9415 32.352 65.7095 31.968C66.4775 31.568 67.3335 31.368 68.2775 31.368ZM81.7479 31.296C83.5399 31.296 84.9639 31.776 86.0199 32.736C87.0759 33.68 87.6039 34.976 87.6039 36.624C87.6039 37.088 87.5559 37.584 87.4599 38.112C87.3479 38.64 87.2599 38.992 87.1959 39.168H78.6519C78.6359 39.264 78.6279 39.4 78.6279 39.576C78.6279 40.472 79.0119 40.92 79.7799 40.92C80.3719 40.92 80.8359 40.656 81.1719 40.128H86.8119C86.4599 41.088 85.9079 41.952 85.1559 42.72C84.4039 43.472 83.5159 44.072 82.4919 44.52C81.4839 44.952 80.4199 45.168 79.2999 45.168C77.5079 45.168 76.0839 44.696 75.0279 43.752C73.9879 42.792 73.4679 41.464 73.4679 39.768C73.4679 39.272 73.5159 38.76 73.6119 38.232C73.8679 36.824 74.3799 35.6 75.1479 34.56C75.9159 33.504 76.8679 32.696 78.0039 32.136C79.1559 31.576 80.4039 31.296 81.7479 31.296ZM82.2519 36.984C82.2679 36.904 82.2759 36.784 82.2759 36.624C82.2759 36.24 82.1559 35.952 81.9159 35.76C81.6759 35.568 81.3719 35.472 81.0039 35.472C80.0439 35.472 79.3959 35.976 79.0599 36.984H82.2519ZM99.2951 45.168C97.2151 45.168 95.5511 44.752 94.3031 43.92C93.0711 43.088 92.4551 41.872 92.4551 40.272C92.4551 40.112 92.4711 39.872 92.5031 39.552H98.1671C98.1191 40.048 98.1911 40.416 98.3831 40.656C98.5911 40.896 98.9271 41.016 99.3911 41.016C99.6791 41.016 99.9191 40.944 100.111 40.8C100.303 40.656 100.399 40.448 100.399 40.176C100.399 39.792 100.207 39.472 99.8231 39.216C99.4551 38.96 98.8551 38.656 98.0231 38.304C97.1111 37.92 96.3591 37.552 95.7671 37.2C95.1911 36.848 94.6871 36.368 94.2551 35.76C93.8231 35.152 93.6071 34.392 93.6071 33.48C93.6071 32.28 93.9031 31.248 94.4951 30.384C95.1031 29.504 95.9431 28.84 97.0151 28.392C98.0871 27.944 99.3111 27.72 100.687 27.72C101.919 27.72 103.015 27.912 103.975 28.296C104.951 28.68 105.711 29.24 106.255 29.976C106.815 30.696 107.095 31.552 107.095 32.544C107.095 32.672 107.079 32.896 107.047 33.216H101.311C101.343 33.024 101.359 32.896 101.359 32.832C101.359 32.528 101.271 32.296 101.095 32.136C100.919 31.96 100.679 31.872 100.375 31.872C100.103 31.872 99.8791 31.952 99.7031 32.112C99.5271 32.272 99.4391 32.48 99.4391 32.736C99.4391 33.088 99.6231 33.4 99.9911 33.672C100.359 33.928 100.943 34.248 101.743 34.632C102.655 35.064 103.407 35.472 103.999 35.856C104.607 36.24 105.127 36.752 105.559 37.392C105.991 38.016 106.207 38.784 106.207 39.696C106.207 40.736 105.927 41.672 105.367 42.504C104.823 43.336 104.031 43.992 102.991 44.472C101.951 44.936 100.719 45.168 99.2951 45.168ZM116.014 31.296C117.806 31.296 119.23 31.776 120.286 32.736C121.342 33.68 121.87 34.976 121.87 36.624C121.87 37.088 121.822 37.584 121.726 38.112C121.614 38.64 121.526 38.992 121.462 39.168H112.918C112.902 39.264 112.894 39.4 112.894 39.576C112.894 40.472 113.278 40.92 114.046 40.92C114.638 40.92 115.102 40.656 115.438 40.128H121.078C120.726 41.088 120.174 41.952 119.422 42.72C118.67 43.472 117.782 44.072 116.758 44.52C115.75 44.952 114.686 45.168 113.566 45.168C111.774 45.168 110.35 44.696 109.294 43.752C108.254 42.792 107.734 41.464 107.734 39.768C107.734 39.272 107.782 38.76 107.878 38.232C108.134 36.824 108.646 35.6 109.414 34.56C110.182 33.504 111.134 32.696 112.27 32.136C113.422 31.576 114.67 31.296 116.014 31.296ZM116.518 36.984C116.534 36.904 116.542 36.784 116.542 36.624C116.542 36.24 116.422 35.952 116.182 35.76C115.942 35.568 115.638 35.472 115.27 35.472C114.31 35.472 113.662 35.976 113.326 36.984H116.518ZM122.667 38.232C122.923 36.808 123.387 35.576 124.059 34.536C124.731 33.48 125.539 32.68 126.483 32.136C127.427 31.576 128.427 31.296 129.483 31.296C130.363 31.296 131.091 31.48 131.667 31.848C132.243 32.2 132.643 32.688 132.867 33.312L133.203 31.464H138.507L136.107 45H130.803L131.139 43.152C130.691 43.776 130.115 44.272 129.411 44.64C128.707 44.992 127.915 45.168 127.035 45.168C125.675 45.168 124.579 44.712 123.747 43.8C122.915 42.888 122.499 41.624 122.499 40.008C122.499 39.4 122.555 38.808 122.667 38.232ZM132.003 38.232C132.035 38.088 132.051 37.896 132.051 37.656C132.051 37.112 131.907 36.696 131.619 36.408C131.331 36.104 130.939 35.952 130.443 35.952C129.867 35.952 129.355 36.152 128.907 36.552C128.475 36.952 128.195 37.512 128.067 38.232C128.035 38.376 128.019 38.568 128.019 38.808C128.019 39.352 128.163 39.776 128.451 40.08C128.739 40.368 129.131 40.512 129.627 40.512C130.203 40.512 130.707 40.312 131.139 39.912C131.587 39.512 131.875 38.952 132.003 38.232ZM146.971 27.24L143.827 45H138.499L141.643 27.24H146.971Z" fill="url(#paint0_linear_1_11523)"/>
</g>
<defs>
<filter id="filter0_d_1_11523" x="-12.8728" y="-14.596" width="203.544" height="107.464" filterUnits="userSpaceOnUse" color-interpolation-filters="sRGB">
<feFlood flood-opacity="0" result="BackgroundImageFix"/>
<feColorMatrix in="SourceAlpha" type="matrix" values="0 0 0 0 0 0 0 0 0 0 0 0 0 0 0 0 0 0 127 0" result="hardAlpha"/>
<feOffset dy="4"/>
<feGaussianBlur stdDeviation="21.85"/>
<feComposite in2="hardAlpha" operator="out"/>
<feColorMatrix type="matrix" values="0 0 0 0 1 0 0 0 0 1 0 0 0 0 1 0 0 0 0.25 0"/>
<feBlend mode="normal" in2="BackgroundImageFix" result="effect1_dropShadow_1_11523"/>
<feBlend mode="normal" in="SourceGraphic" in2="effect1_dropShadow_1_11523" result="shape"/>
</filter>
<linearGradient id="paint0_linear_1_11523" x1="-17.5" y1="47.9298" x2="222.5" y2="47.9298" gradientUnits="userSpaceOnUse">
<stop stop-color="#58E5EA"/>
<stop offset="1" stop-color="#4FA4C8"/>
</linearGradient>
</defs>
</svg>
